<mxfile host="app.diagrams.net" modified="2023-03-28T04:51:24.308Z" agent="Mozilla/5.0 (Windows NT 10.0; Win64; x64) AppleWebKit/537.36 (KHTML, like Gecko) Chrome/111.0.0.0 Safari/537.36" etag="uRmHnTtOKHniR_pqLEuH" version="21.1.1" type="device">
  <diagram name="Halaman-1" id="ZRRKem8jAIS7mVy1QUZ9">
    <mxGraphModel dx="291" dy="305" grid="1" gridSize="10" guides="1" tooltips="1" connect="1" arrows="1" fold="1" page="1" pageScale="1" pageWidth="827" pageHeight="1169" math="0" shadow="0">
      <root>
        <mxCell id="0" />
        <mxCell id="1" parent="0" />
        <mxCell id="U2-fn6ZARYAdgv5_N3ZH-4" value="" style="edgeStyle=orthogonalEdgeStyle;rounded=0;orthogonalLoop=1;jettySize=auto;html=1;" edge="1" parent="1" source="U2-fn6ZARYAdgv5_N3ZH-1" target="U2-fn6ZARYAdgv5_N3ZH-3">
          <mxGeometry relative="1" as="geometry" />
        </mxCell>
        <mxCell id="U2-fn6ZARYAdgv5_N3ZH-1" value="START" style="ellipse;whiteSpace=wrap;html=1;" vertex="1" parent="1">
          <mxGeometry x="210" y="60" width="120" height="80" as="geometry" />
        </mxCell>
        <mxCell id="U2-fn6ZARYAdgv5_N3ZH-8" value="" style="edgeStyle=orthogonalEdgeStyle;rounded=0;orthogonalLoop=1;jettySize=auto;html=1;" edge="1" parent="1" source="U2-fn6ZARYAdgv5_N3ZH-3" target="U2-fn6ZARYAdgv5_N3ZH-7">
          <mxGeometry relative="1" as="geometry" />
        </mxCell>
        <mxCell id="U2-fn6ZARYAdgv5_N3ZH-3" value="data&lt;br&gt;int i = 0" style="shape=hexagon;perimeter=hexagonPerimeter2;whiteSpace=wrap;html=1;fixedSize=1;" vertex="1" parent="1">
          <mxGeometry x="210" y="180" width="120" height="80" as="geometry" />
        </mxCell>
        <mxCell id="U2-fn6ZARYAdgv5_N3ZH-13" value="" style="edgeStyle=orthogonalEdgeStyle;rounded=0;orthogonalLoop=1;jettySize=auto;html=1;" edge="1" parent="1" source="U2-fn6ZARYAdgv5_N3ZH-7" target="U2-fn6ZARYAdgv5_N3ZH-12">
          <mxGeometry relative="1" as="geometry" />
        </mxCell>
        <mxCell id="U2-fn6ZARYAdgv5_N3ZH-22" value="" style="edgeStyle=orthogonalEdgeStyle;rounded=0;orthogonalLoop=1;jettySize=auto;html=1;" edge="1" parent="1" source="U2-fn6ZARYAdgv5_N3ZH-7" target="U2-fn6ZARYAdgv5_N3ZH-21">
          <mxGeometry relative="1" as="geometry" />
        </mxCell>
        <mxCell id="U2-fn6ZARYAdgv5_N3ZH-7" value="i &amp;lt; data.length" style="rhombus;whiteSpace=wrap;html=1;" vertex="1" parent="1">
          <mxGeometry x="210" y="340" width="120" height="110" as="geometry" />
        </mxCell>
        <mxCell id="U2-fn6ZARYAdgv5_N3ZH-15" value="" style="edgeStyle=orthogonalEdgeStyle;rounded=0;orthogonalLoop=1;jettySize=auto;html=1;" edge="1" parent="1" source="U2-fn6ZARYAdgv5_N3ZH-12" target="U2-fn6ZARYAdgv5_N3ZH-14">
          <mxGeometry relative="1" as="geometry" />
        </mxCell>
        <mxCell id="U2-fn6ZARYAdgv5_N3ZH-17" value="" style="edgeStyle=orthogonalEdgeStyle;rounded=0;orthogonalLoop=1;jettySize=auto;html=1;" edge="1" parent="1" source="U2-fn6ZARYAdgv5_N3ZH-12" target="U2-fn6ZARYAdgv5_N3ZH-16">
          <mxGeometry relative="1" as="geometry" />
        </mxCell>
        <mxCell id="U2-fn6ZARYAdgv5_N3ZH-12" value="data[i] == x" style="rhombus;whiteSpace=wrap;html=1;" vertex="1" parent="1">
          <mxGeometry x="390" y="337.5" width="130" height="115" as="geometry" />
        </mxCell>
        <mxCell id="U2-fn6ZARYAdgv5_N3ZH-27" style="edgeStyle=orthogonalEdgeStyle;rounded=0;orthogonalLoop=1;jettySize=auto;html=1;entryX=1;entryY=0.5;entryDx=0;entryDy=0;" edge="1" parent="1" source="U2-fn6ZARYAdgv5_N3ZH-14" target="U2-fn6ZARYAdgv5_N3ZH-20">
          <mxGeometry relative="1" as="geometry">
            <Array as="points">
              <mxPoint x="455" y="740" />
            </Array>
          </mxGeometry>
        </mxCell>
        <mxCell id="U2-fn6ZARYAdgv5_N3ZH-14" value="return i" style="rounded=0;whiteSpace=wrap;html=1;" vertex="1" parent="1">
          <mxGeometry x="395" y="525" width="120" height="60" as="geometry" />
        </mxCell>
        <mxCell id="U2-fn6ZARYAdgv5_N3ZH-19" style="edgeStyle=orthogonalEdgeStyle;rounded=0;orthogonalLoop=1;jettySize=auto;html=1;" edge="1" parent="1" source="U2-fn6ZARYAdgv5_N3ZH-16">
          <mxGeometry relative="1" as="geometry">
            <mxPoint x="270" y="310" as="targetPoint" />
            <Array as="points">
              <mxPoint x="630" y="310" />
            </Array>
          </mxGeometry>
        </mxCell>
        <mxCell id="U2-fn6ZARYAdgv5_N3ZH-16" value="i++" style="rounded=0;whiteSpace=wrap;html=1;" vertex="1" parent="1">
          <mxGeometry x="570" y="365" width="120" height="60" as="geometry" />
        </mxCell>
        <mxCell id="U2-fn6ZARYAdgv5_N3ZH-20" value="END" style="ellipse;whiteSpace=wrap;html=1;" vertex="1" parent="1">
          <mxGeometry x="210" y="700" width="120" height="80" as="geometry" />
        </mxCell>
        <mxCell id="U2-fn6ZARYAdgv5_N3ZH-23" value="" style="edgeStyle=orthogonalEdgeStyle;rounded=0;orthogonalLoop=1;jettySize=auto;html=1;" edge="1" parent="1" source="U2-fn6ZARYAdgv5_N3ZH-21" target="U2-fn6ZARYAdgv5_N3ZH-20">
          <mxGeometry relative="1" as="geometry" />
        </mxCell>
        <mxCell id="U2-fn6ZARYAdgv5_N3ZH-21" value="return -1" style="rounded=0;whiteSpace=wrap;html=1;" vertex="1" parent="1">
          <mxGeometry x="210" y="525" width="120" height="60" as="geometry" />
        </mxCell>
        <mxCell id="U2-fn6ZARYAdgv5_N3ZH-29" value="" style="edgeStyle=orthogonalEdgeStyle;rounded=0;orthogonalLoop=1;jettySize=auto;html=1;" edge="1" parent="1" source="U2-fn6ZARYAdgv5_N3ZH-24" target="U2-fn6ZARYAdgv5_N3ZH-28">
          <mxGeometry relative="1" as="geometry" />
        </mxCell>
        <mxCell id="U2-fn6ZARYAdgv5_N3ZH-24" value="START" style="ellipse;whiteSpace=wrap;html=1;" vertex="1" parent="1">
          <mxGeometry x="210" y="830" width="120" height="80" as="geometry" />
        </mxCell>
        <mxCell id="U2-fn6ZARYAdgv5_N3ZH-31" value="" style="edgeStyle=orthogonalEdgeStyle;rounded=0;orthogonalLoop=1;jettySize=auto;html=1;" edge="1" parent="1" source="U2-fn6ZARYAdgv5_N3ZH-28" target="U2-fn6ZARYAdgv5_N3ZH-30">
          <mxGeometry relative="1" as="geometry" />
        </mxCell>
        <mxCell id="U2-fn6ZARYAdgv5_N3ZH-28" value="n&lt;br&gt;begin = 0&lt;br&gt;end = n-1&lt;br&gt;middle" style="shape=hexagon;perimeter=hexagonPerimeter2;whiteSpace=wrap;html=1;fixedSize=1;" vertex="1" parent="1">
          <mxGeometry x="210" y="950" width="120" height="80" as="geometry" />
        </mxCell>
        <mxCell id="U2-fn6ZARYAdgv5_N3ZH-34" value="" style="edgeStyle=orthogonalEdgeStyle;rounded=0;orthogonalLoop=1;jettySize=auto;html=1;" edge="1" parent="1" source="U2-fn6ZARYAdgv5_N3ZH-30" target="U2-fn6ZARYAdgv5_N3ZH-33">
          <mxGeometry relative="1" as="geometry" />
        </mxCell>
        <mxCell id="U2-fn6ZARYAdgv5_N3ZH-51" value="" style="edgeStyle=orthogonalEdgeStyle;rounded=0;orthogonalLoop=1;jettySize=auto;html=1;" edge="1" parent="1" source="U2-fn6ZARYAdgv5_N3ZH-30" target="U2-fn6ZARYAdgv5_N3ZH-50">
          <mxGeometry relative="1" as="geometry" />
        </mxCell>
        <mxCell id="U2-fn6ZARYAdgv5_N3ZH-30" value="begin &amp;lt;= end" style="rhombus;whiteSpace=wrap;html=1;" vertex="1" parent="1">
          <mxGeometry x="197.5" y="1095" width="145" height="110" as="geometry" />
        </mxCell>
        <mxCell id="U2-fn6ZARYAdgv5_N3ZH-36" value="" style="edgeStyle=orthogonalEdgeStyle;rounded=0;orthogonalLoop=1;jettySize=auto;html=1;" edge="1" parent="1" source="U2-fn6ZARYAdgv5_N3ZH-33" target="U2-fn6ZARYAdgv5_N3ZH-35">
          <mxGeometry relative="1" as="geometry" />
        </mxCell>
        <mxCell id="U2-fn6ZARYAdgv5_N3ZH-33" value="middle = (begin+end)/2" style="rounded=0;whiteSpace=wrap;html=1;" vertex="1" parent="1">
          <mxGeometry x="390" y="1120" width="120" height="60" as="geometry" />
        </mxCell>
        <mxCell id="U2-fn6ZARYAdgv5_N3ZH-38" value="" style="edgeStyle=orthogonalEdgeStyle;rounded=0;orthogonalLoop=1;jettySize=auto;html=1;" edge="1" parent="1" source="U2-fn6ZARYAdgv5_N3ZH-35" target="U2-fn6ZARYAdgv5_N3ZH-37">
          <mxGeometry relative="1" as="geometry" />
        </mxCell>
        <mxCell id="U2-fn6ZARYAdgv5_N3ZH-40" value="" style="edgeStyle=orthogonalEdgeStyle;rounded=0;orthogonalLoop=1;jettySize=auto;html=1;" edge="1" parent="1" source="U2-fn6ZARYAdgv5_N3ZH-35" target="U2-fn6ZARYAdgv5_N3ZH-39">
          <mxGeometry relative="1" as="geometry" />
        </mxCell>
        <mxCell id="U2-fn6ZARYAdgv5_N3ZH-35" value="data[middle] == x" style="rhombus;whiteSpace=wrap;html=1;" vertex="1" parent="1">
          <mxGeometry x="560" y="1100" width="130" height="100" as="geometry" />
        </mxCell>
        <mxCell id="U2-fn6ZARYAdgv5_N3ZH-54" style="edgeStyle=orthogonalEdgeStyle;rounded=0;orthogonalLoop=1;jettySize=auto;html=1;" edge="1" parent="1" source="U2-fn6ZARYAdgv5_N3ZH-37">
          <mxGeometry relative="1" as="geometry">
            <mxPoint x="270.0000000000001" y="1360" as="targetPoint" />
            <Array as="points">
              <mxPoint x="625" y="1360" />
            </Array>
          </mxGeometry>
        </mxCell>
        <mxCell id="U2-fn6ZARYAdgv5_N3ZH-37" value="return middle" style="rounded=0;whiteSpace=wrap;html=1;" vertex="1" parent="1">
          <mxGeometry x="565" y="1260" width="120" height="60" as="geometry" />
        </mxCell>
        <mxCell id="U2-fn6ZARYAdgv5_N3ZH-42" value="" style="edgeStyle=orthogonalEdgeStyle;rounded=0;orthogonalLoop=1;jettySize=auto;html=1;" edge="1" parent="1" source="U2-fn6ZARYAdgv5_N3ZH-39" target="U2-fn6ZARYAdgv5_N3ZH-41">
          <mxGeometry relative="1" as="geometry" />
        </mxCell>
        <mxCell id="U2-fn6ZARYAdgv5_N3ZH-44" value="" style="edgeStyle=orthogonalEdgeStyle;rounded=0;orthogonalLoop=1;jettySize=auto;html=1;" edge="1" parent="1" source="U2-fn6ZARYAdgv5_N3ZH-39" target="U2-fn6ZARYAdgv5_N3ZH-43">
          <mxGeometry relative="1" as="geometry" />
        </mxCell>
        <mxCell id="U2-fn6ZARYAdgv5_N3ZH-39" value="x &amp;gt; data[middle]" style="rhombus;whiteSpace=wrap;html=1;" vertex="1" parent="1">
          <mxGeometry x="740" y="1090" width="140" height="120" as="geometry" />
        </mxCell>
        <mxCell id="U2-fn6ZARYAdgv5_N3ZH-56" style="edgeStyle=orthogonalEdgeStyle;rounded=0;orthogonalLoop=1;jettySize=auto;html=1;" edge="1" parent="1" source="U2-fn6ZARYAdgv5_N3ZH-41">
          <mxGeometry relative="1" as="geometry">
            <mxPoint x="1140" y="1060" as="targetPoint" />
            <Array as="points">
              <mxPoint x="1250" y="1290" />
              <mxPoint x="1250" y="1060" />
            </Array>
          </mxGeometry>
        </mxCell>
        <mxCell id="U2-fn6ZARYAdgv5_N3ZH-41" value="begin = middle + 1" style="rounded=0;whiteSpace=wrap;html=1;" vertex="1" parent="1">
          <mxGeometry x="750" y="1260" width="120" height="60" as="geometry" />
        </mxCell>
        <mxCell id="U2-fn6ZARYAdgv5_N3ZH-46" value="" style="edgeStyle=orthogonalEdgeStyle;rounded=0;orthogonalLoop=1;jettySize=auto;html=1;" edge="1" parent="1" source="U2-fn6ZARYAdgv5_N3ZH-43" target="U2-fn6ZARYAdgv5_N3ZH-45">
          <mxGeometry relative="1" as="geometry" />
        </mxCell>
        <mxCell id="U2-fn6ZARYAdgv5_N3ZH-43" value="end = middle - 1" style="rounded=0;whiteSpace=wrap;html=1;" vertex="1" parent="1">
          <mxGeometry x="930" y="1120" width="120" height="60" as="geometry" />
        </mxCell>
        <mxCell id="U2-fn6ZARYAdgv5_N3ZH-48" style="edgeStyle=orthogonalEdgeStyle;rounded=0;orthogonalLoop=1;jettySize=auto;html=1;" edge="1" parent="1" source="U2-fn6ZARYAdgv5_N3ZH-45">
          <mxGeometry relative="1" as="geometry">
            <mxPoint x="270" y="1060" as="targetPoint" />
            <Array as="points">
              <mxPoint x="1140" y="1060" />
            </Array>
          </mxGeometry>
        </mxCell>
        <mxCell id="U2-fn6ZARYAdgv5_N3ZH-45" value="begin++" style="rounded=0;whiteSpace=wrap;html=1;" vertex="1" parent="1">
          <mxGeometry x="1080" y="1120" width="120" height="60" as="geometry" />
        </mxCell>
        <mxCell id="U2-fn6ZARYAdgv5_N3ZH-49" value="END" style="ellipse;whiteSpace=wrap;html=1;" vertex="1" parent="1">
          <mxGeometry x="210" y="1430" width="120" height="80" as="geometry" />
        </mxCell>
        <mxCell id="U2-fn6ZARYAdgv5_N3ZH-52" value="" style="edgeStyle=orthogonalEdgeStyle;rounded=0;orthogonalLoop=1;jettySize=auto;html=1;" edge="1" parent="1" source="U2-fn6ZARYAdgv5_N3ZH-50" target="U2-fn6ZARYAdgv5_N3ZH-49">
          <mxGeometry relative="1" as="geometry" />
        </mxCell>
        <mxCell id="U2-fn6ZARYAdgv5_N3ZH-50" value="return -1" style="rounded=0;whiteSpace=wrap;html=1;" vertex="1" parent="1">
          <mxGeometry x="210" y="1260" width="120" height="60" as="geometry" />
        </mxCell>
      </root>
    </mxGraphModel>
  </diagram>
</mxfile>
